<?xml version="1.0" encoding="UTF-8" standalone="no"?><!DOCTYPE svg PUBLIC "-//W3C//DTD SVG 1.1//EN" "http://www.w3.org/Graphics/SVG/1.1/DTD/svg11.dtd"><svg width="100%" height="100%" viewBox="0 0 700 700" version="1.1" xmlns="http://www.w3.org/2000/svg" xmlns:xlink="http://www.w3.org/1999/xlink" xml:space="preserve" xmlns:serif="http://www.serif.com/" style="fill-rule:evenodd;clip-rule:evenodd;stroke-linecap:round;stroke-miterlimit:1.5;"><rect id="Artboard1" x="0" y="0" width="700" height="700" style="fill:none;"/><path d="M632.07,141.922c-0,-40.171 -32.614,-72.784 -72.785,-72.784l-414.309,-0c-40.171,-0 -72.784,32.613 -72.784,72.784l-0,414.309c-0,40.171 32.613,72.784 72.784,72.784l414.309,0c40.171,0 72.785,-32.613 72.785,-72.784l-0,-414.309Z" style="fill:#303030;stroke:#fff;stroke-width:12.5px;"/><rect x="231.495" y="510.962" width="237.01" height="19.078" style="fill:#fff;fill-rule:nonzero;"/><g><rect x="270.294" y="239.417" width="160.69" height="160.69" style="fill:#303030;stroke:#fff;stroke-width:16.67px;stroke-linejoin:round;"/><path d="M270.294,400.106l160.689,-160.689" style="fill:none;stroke:#fff;stroke-width:16.67px;"/><path d="M270.294,240.447l-0,-70.044l160.689,69.014" style="fill:none;stroke:#fff;stroke-width:16.67px;stroke-linejoin:round;"/><path d="M270.294,400.403l-0,70.044l160.689,-69.014" style="fill:none;stroke:#fff;stroke-width:16.67px;stroke-linejoin:round;"/><path d="M430.983,400.106l-160.689,-160.689" style="fill:none;stroke:#fff;stroke-width:16.67px;"/><circle cx="270" cy="169.199" r="13.339" style="fill:#fff;stroke:#fff;stroke-width:12.5px;stroke-linejoin:round;"/><circle cx="270" cy="239.199" r="13.339" style="fill:#fff;stroke:#fff;stroke-width:12.5px;stroke-linejoin:round;"/><circle cx="270" cy="399.199" r="13.339" style="fill:#fff;stroke:#fff;stroke-width:12.5px;stroke-linejoin:round;"/><circle cx="270" cy="469.199" r="13.339" style="fill:#fff;stroke:#fff;stroke-width:12.5px;stroke-linejoin:round;"/><circle cx="430" cy="399.199" r="13.339" style="fill:#fff;stroke:#fff;stroke-width:12.5px;stroke-linejoin:round;"/><circle cx="430" cy="239.199" r="13.339" style="fill:#fff;stroke:#fff;stroke-width:12.5px;stroke-linejoin:round;"/></g></svg>
