<?xml version="1.0" encoding="UTF-8" standalone="no"?><!DOCTYPE svg PUBLIC "-//W3C//DTD SVG 1.1//EN" "http://www.w3.org/Graphics/SVG/1.1/DTD/svg11.dtd">
<svg width="100%" height="100%" viewBox="0 0 4065 700" version="1.1"
     xmlns="http://www.w3.org/2000/svg"
     xmlns:xlink="http://www.w3.org/1999/xlink" xml:space="preserve"
     xmlns:serif="http://www.serif.com/" style="fill-rule:evenodd;clip-rule:evenodd;stroke-linecap:round;stroke-linejoin:round;stroke-miterlimit:1.5;">
    <style>
        #logo>rect,#logo>path,#dash{
            filter: drop-shadow(10px 10px 5px rgb(0 0 0 / 0.2));
        }
        #logo-box {
            filter: drop-shadow(10px 10px 5px #6943CB);
        }
        #decent-cli>path{
            filter: drop-shadow(10px 10px 5px #00AE7B);
        }
<!--        @media (prefers-color-scheme: dark) {-->
<!--            #logo-box {-->
<!--                filter: drop-shadow(10px 10px 5px #7153C0);-->
<!--            }-->
<!--            #decent-cli>path{-->
<!--                filter: drop-shadow(10px 10px 5px #20E2A8);-->
<!--            }-->
<!--        }-->
    </style>
    <path id="logo-box" d="M632.07,141.922c-0,-40.171 -32.614,-72.784 -72.785,-72.784l-414.309,-0c-40.171,-0 -72.784,32.613 -72.784,72.784l-0,414.309c-0,40.171 32.613,72.784 72.784,72.784l414.309,0c40.171,0 72.785,-32.613 72.785,-72.784l-0,-414.309Z" style="fill:#a884e9;"/>
    <rect id="dash" x="231.495" y="510.962" width="237.01" height="19.078" style="fill:#fff;fill-rule:nonzero;"/>
    <g id="logo">
        <path d="M270.294,400.106l160.689,-160.689m-160.689,-0l-0,-69.014l160.689,69.014m0,-0l-160.689,-0l-0,160.986l160.689,-0.297l0,-160.689Zm-160.689,160.986l-0,70.044l160.689,-70.341m0,0l-160.689,-160.689" style="fill:none;stroke:#fff;stroke-width:16.67px;"/>
        <circle cx="270" cy="169.199" r="13.339" style="fill:#fff;stroke:#fff;stroke-width:12.5px;"/>
        <circle cx="270" cy="239.199" r="13.339" style="fill:#fff;stroke:#fff;stroke-width:12.5px;"/>
        <circle cx="270" cy="399.199" r="13.339" style="fill:#fff;stroke:#fff;stroke-width:12.5px;"/>
        <circle cx="270" cy="469.199" r="13.339" style="fill:#fff;stroke:#fff;stroke-width:12.5px;"/>
        <circle cx="430" cy="399.199" r="13.339" style="fill:#fff;stroke:#fff;stroke-width:12.5px;"/>
        <circle cx="430" cy="239.199" r="13.339" style="fill:#fff;stroke:#fff;stroke-width:12.5px;"/>
    </g>
    <g id="decent-cli">
        <path d="M777.684,547.307l0,-395.417l102.375,0c25.639,0 47.757,4.875 66.354,14.625c18.598,9.75 33.042,23.473 43.334,41.167c10.291,17.694 15.437,38.639 15.437,62.833l0,157.625c0,24.195 -5.146,45.23 -15.437,63.105c-10.292,17.875 -24.736,31.687 -43.334,41.437c-18.597,9.75 -40.715,14.625 -66.354,14.625l-102.375,0Zm48.75,-43.333l53.625,-0c23.833,-0 42.521,-6.681 56.063,-20.042c13.541,-13.361 20.312,-31.958 20.312,-55.792l0,-157.625c0,-23.472 -6.771,-41.889 -20.312,-55.25c-13.542,-13.361 -32.23,-20.041 -56.063,-20.041l-53.625,-0l0,308.75Z" style="fill:#00f3d0;fill-rule:nonzero;"/>
        <path d="M1215.35,552.724c-23.472,-0 -43.965,-4.695 -61.479,-14.084c-17.514,-9.389 -31.056,-22.659 -40.625,-39.812c-9.57,-17.153 -14.355,-37.104 -14.355,-59.854l0,-81.25c0,-23.111 4.785,-43.153 14.355,-60.125c9.569,-16.973 23.111,-30.153 40.625,-39.542c17.514,-9.389 38.007,-14.083 61.479,-14.083c23.472,-0 43.965,4.694 61.479,14.083c17.514,9.389 31.056,22.569 40.625,39.542c9.569,16.972 14.354,37.014 14.354,60.125l0,52.541l-185.25,0l0,28.709c0,23.472 5.958,41.437 17.875,53.896c11.917,12.458 28.889,18.687 50.917,18.687c18.778,0 33.944,-3.34 45.5,-10.021c11.555,-6.68 18.597,-16.701 21.125,-30.062l48.75,-0c-3.25,24.916 -15.438,44.687 -36.563,59.312c-21.125,14.625 -47.396,21.938 -78.812,21.938Zm68.791,-174.959l0,-20.041c0,-23.473 -5.868,-41.528 -17.604,-54.167c-11.736,-12.639 -28.798,-18.958 -51.187,-18.958c-22.028,-0 -39,6.319 -50.917,18.958c-11.917,12.639 -17.875,30.694 -17.875,54.167l0,15.708l141.375,0l-3.792,4.333Z" style="fill:#00f3d0;fill-rule:nonzero;"/>
        <path d="M1542.52,552.724c-23.833,-0 -44.506,-4.514 -62.02,-13.542c-17.514,-9.028 -31.056,-22.118 -40.625,-39.271c-9.57,-17.153 -14.355,-37.465 -14.355,-60.937l0,-178.75c0,-23.834 4.785,-44.236 14.355,-61.209c9.569,-16.972 23.111,-29.972 40.625,-39c17.514,-9.027 38.187,-13.541 62.02,-13.541c23.834,-0 44.417,4.604 61.75,13.812c17.334,9.209 30.695,22.299 40.084,39.271c9.389,16.972 14.083,37.194 14.083,60.667l-48.75,-0c0,-22.389 -5.868,-39.632 -17.604,-51.729c-11.736,-12.098 -28.257,-18.146 -49.563,-18.146c-21.305,-0 -38.006,5.958 -50.104,17.875c-12.097,11.916 -18.146,29.069 -18.146,51.458l0,179.292c0,22.389 6.049,39.632 18.146,51.729c12.098,12.097 28.799,18.146 50.104,18.146c21.306,-0 37.827,-6.049 49.563,-18.146c11.736,-12.097 17.604,-29.34 17.604,-51.729l48.75,-0c0,23.111 -4.694,43.243 -14.083,60.396c-9.389,17.152 -22.75,30.333 -40.084,39.541c-17.333,9.209 -37.916,13.813 -61.75,13.813Z" style="fill:#00f3d0;fill-rule:nonzero;"/>
        <path d="M1865.35,552.724c-23.472,-0 -43.965,-4.695 -61.479,-14.084c-17.514,-9.389 -31.056,-22.659 -40.625,-39.812c-9.57,-17.153 -14.355,-37.104 -14.355,-59.854l0,-81.25c0,-23.111 4.785,-43.153 14.355,-60.125c9.569,-16.973 23.111,-30.153 40.625,-39.542c17.514,-9.389 38.007,-14.083 61.479,-14.083c23.472,-0 43.965,4.694 61.479,14.083c17.514,9.389 31.056,22.569 40.625,39.542c9.569,16.972 14.354,37.014 14.354,60.125l0,52.541l-185.25,0l0,28.709c0,23.472 5.958,41.437 17.875,53.896c11.917,12.458 28.889,18.687 50.917,18.687c18.778,0 33.944,-3.34 45.5,-10.021c11.555,-6.68 18.597,-16.701 21.125,-30.062l48.75,-0c-3.25,24.916 -15.438,44.687 -36.563,59.312c-21.125,14.625 -47.396,21.938 -78.812,21.938Zm68.791,-174.959l0,-20.041c0,-23.473 -5.868,-41.528 -17.604,-54.167c-11.736,-12.639 -28.798,-18.958 -51.187,-18.958c-22.028,-0 -39,6.319 -50.917,18.958c-11.917,12.639 -17.875,30.694 -17.875,54.167l0,15.708l141.375,0l-3.792,4.333Z" style="fill:#00f3d0;fill-rule:nonzero;"/>
        <path d="M2077.68,547.307l0,-297.917l48.75,0l0,56.875l10.292,0l-10.292,11.375c0,-23.472 7.042,-41.618 21.125,-54.437c14.083,-12.82 33.583,-19.229 58.5,-19.229c29.972,-0 53.806,9.208 71.5,27.625c17.695,18.416 26.542,43.514 26.542,75.291l-0,200.417l-48.75,0l-0,-195c-0,-21.306 -5.688,-37.646 -17.063,-49.021c-11.375,-11.375 -26.812,-17.062 -46.312,-17.062c-20.222,-0 -36.202,6.139 -47.938,18.416c-11.736,12.278 -17.604,29.973 -17.604,53.084l0,189.583l-48.75,0Z" style="fill:#00f3d0;fill-rule:nonzero;"/>
        <path d="M2547.85,547.307c-25.639,0 -45.59,-6.861 -59.854,-20.583c-14.264,-13.723 -21.396,-33.042 -21.396,-57.959l-0,-174.958l-83.959,0l0,-44.417l83.959,0l-0,-83.958l48.75,0l-0,83.958l119.166,0l0,44.417l-119.166,0l-0,174.958c-0,22.75 10.833,34.125 32.5,34.125l81.25,0l-0,44.417l-81.25,0Z" style="fill:#00f3d0;fill-rule:nonzero;"/>
        <rect x="2753.68" y="346.89" width="173.333" height="43.333" style="fill:#00f3d0;fill-rule:nonzero;"/>
        <path d="M3167.52,552.724c-23.833,-0 -44.506,-4.514 -62.02,-13.542c-17.514,-9.028 -31.056,-22.118 -40.625,-39.271c-9.57,-17.153 -14.355,-37.465 -14.355,-60.937l0,-178.75c0,-23.834 4.785,-44.236 14.355,-61.209c9.569,-16.972 23.111,-29.972 40.625,-39c17.514,-9.027 38.187,-13.541 62.02,-13.541c23.834,-0 44.417,4.604 61.75,13.812c17.334,9.209 30.695,22.299 40.084,39.271c9.389,16.972 14.083,37.194 14.083,60.667l-48.75,-0c0,-22.389 -5.868,-39.632 -17.604,-51.729c-11.736,-12.098 -28.257,-18.146 -49.563,-18.146c-21.305,-0 -38.006,5.958 -50.104,17.875c-12.097,11.916 -18.146,29.069 -18.146,51.458l0,179.292c0,22.389 6.049,39.632 18.146,51.729c12.098,12.097 28.799,18.146 50.104,18.146c21.306,-0 37.827,-6.049 49.563,-18.146c11.736,-12.097 17.604,-29.34 17.604,-51.729l48.75,-0c0,23.111 -4.694,43.243 -14.083,60.396c-9.389,17.152 -22.75,30.333 -40.084,39.541c-17.333,9.209 -37.916,13.813 -61.75,13.813Z" style="fill:#00f3d0;fill-rule:nonzero;"/>
        <path d="M3390.14,547.307l0,-395.417l48.75,0l0,351l178.75,0l0,44.417l-227.5,0Z" style="fill:#00f3d0;fill-rule:nonzero;"/>
        <path d="M3709.73,547.307l-0,-44.417l80.708,0l0,-306.583l-80.708,0l-0,-44.417l211.25,0l-0,44.417l-80.709,0l0,306.583l80.709,0l-0,44.417l-211.25,0Z" style="fill:#00f3d0;fill-rule:nonzero;"/>
    </g>
</svg>
